<svg width="335" height="39" viewBox="0 0 335 39" fill="none" xmlns="http://www.w3.org/2000/svg">
<path d="M0 0.644531H7.61755L25.2148 23.7668V0.644531H33.3653V38.1979H26.3405L8.15384 14.3248V38.1974H0V0.644531Z" fill="black"/>
<path d="M36.869 23.9803V23.8732C36.869 15.6653 42.7157 8.90527 51.0846 8.90527C60.6877 8.90527 65.0875 16.3627 65.0875 24.517C65.0875 25.1614 65.0339 25.9123 64.979 26.6632H44.9684C45.7728 30.3656 48.3486 32.2957 51.9975 32.2957C54.7335 32.2957 56.7171 31.4377 58.9717 29.3456L63.6392 33.4763C60.9568 36.804 57.0933 38.8411 51.889 38.8411C43.2529 38.8411 36.869 32.7789 36.869 23.9803ZM57.1468 21.5689C56.6645 17.92 54.5179 15.4531 51.0846 15.4531C47.7048 15.4531 45.5056 17.8645 44.8632 21.5689H57.1468Z" fill="black"/>
<path d="M70.7497 30.0426V16.4159H67.3164V9.44168H70.7497V2.0918H78.9036V9.44168H85.6636V16.4159H78.9036V28.7014C78.9036 30.5793 79.708 31.4908 81.5325 31.4908C82.9385 31.4979 84.3232 31.1474 85.5566 30.4723V37.0148C83.6095 38.164 81.3778 38.7409 79.1177 38.6792C74.129 38.6806 70.7497 36.6951 70.7497 30.0426Z" fill="black"/>
<path d="M89.1281 19.5283V19.4213C89.1281 8.74463 97.1758 0 108.708 0C115.791 0 120.029 2.36315 123.514 5.79455L118.258 11.8572C115.361 9.22835 112.411 7.61755 108.654 7.61755C102.325 7.61755 97.7637 12.8744 97.7637 19.3142V19.4213C97.7637 25.8587 102.218 31.2235 108.654 31.2235C112.947 31.2235 115.575 29.5061 118.527 26.8232L123.783 32.135C119.922 36.2657 115.629 38.8411 108.387 38.8411C97.3364 38.8411 89.1281 30.3115 89.1281 19.5283Z" fill="black"/>
<path d="M125.347 23.9803V23.8732C125.347 15.6118 131.998 8.90527 140.957 8.90527C149.863 8.90527 156.462 15.5047 156.462 23.7661V23.8732C156.462 32.1351 149.809 38.8411 140.85 38.8411C131.946 38.8411 125.347 32.2407 125.347 23.9803ZM148.415 23.9803V23.8732C148.415 19.6354 145.357 15.9344 140.85 15.9344C136.183 15.9344 133.393 19.5284 133.393 23.7661V23.8732C133.393 28.1114 136.452 31.8139 140.957 31.8139C145.626 31.8139 148.416 28.218 148.416 23.9803H148.415Z" fill="black"/>
<path d="M159.611 9.44205H167.765V13.5197C169.646 11.1083 172.057 8.90527 176.187 8.90527C182.357 8.90527 185.951 12.9829 185.951 19.5819V38.1978H177.8V22.1573C177.8 18.2942 175.976 16.3092 172.863 16.3092C169.75 16.3092 167.767 18.2942 167.767 22.1573V38.1973H159.611V9.44205Z" fill="black"/>
<path d="M189.04 34.3875L192.527 29.0241C195.639 31.2768 198.912 32.4575 201.593 32.4575C203.953 32.4575 205.027 31.598 205.027 30.3118V30.2033C205.027 28.4338 202.236 27.8435 199.072 26.8785C195.048 25.6979 190.487 23.8194 190.487 18.2404V18.1334C190.487 12.2853 195.208 9.01208 201.001 9.01208C204.822 9.06796 208.547 10.2232 211.729 12.3398L208.618 17.9742C205.775 16.3104 202.932 15.2918 200.839 15.2918C198.855 15.2918 197.835 16.1498 197.835 17.2768V17.3839C197.835 18.9928 200.571 19.7437 203.683 20.8172C207.705 22.1584 212.373 24.0885 212.373 29.3468V29.4538C212.373 35.8387 207.598 38.7357 201.377 38.7357C196.895 38.6994 192.554 37.1693 189.04 34.3875V34.3875Z" fill="black"/>
<path d="M218.05 30.0426V16.4159H214.616V9.44168H218.05V2.0918H226.204V9.44168H232.964V16.4159H226.204V28.7014C226.204 30.5793 227.009 31.4908 228.834 31.4908C230.24 31.4978 231.624 31.1473 232.857 30.4723V37.0148C230.91 38.1641 228.679 38.7409 226.418 38.6792C221.43 38.6806 218.05 36.6951 218.05 30.0426Z" fill="black"/>
<path d="M236.725 9.44151H244.88V15.2365C246.542 11.2664 249.225 8.69061 254.053 8.90474V17.4343H253.625C248.206 17.4343 244.88 20.707 244.88 27.5741V38.1953H236.725V9.44151Z" fill="black"/>
<path d="M257.702 28.0579V9.44202H265.856V25.482C265.856 29.3456 267.681 31.3306 270.792 31.3306C273.903 31.3306 275.889 29.347 275.889 25.482V9.44202H284.044V38.1972H275.889V34.1215C274.011 36.5363 271.597 38.736 267.465 38.736C261.296 38.7345 257.702 34.6569 257.702 28.0579Z" fill="black"/>
<path d="M287.444 23.9803V23.8732C287.444 15.6653 293.721 8.90527 302.517 8.90527C307.936 8.90527 311.316 10.7302 313.999 13.7338L309.01 19.0987C307.185 17.1696 305.362 15.9344 302.464 15.9344C298.387 15.9344 295.49 19.5284 295.49 23.7661V23.8732C295.49 28.2735 298.336 31.8139 302.787 31.8139C305.523 31.8139 307.401 30.6332 309.385 28.7553L314.159 33.5833C311.37 36.6419 308.152 38.8401 302.41 38.8401C293.774 38.8411 287.444 32.1886 287.444 23.9803Z" fill="black"/>
<path d="M320.09 30.0426V16.4159H316.656V9.44168H320.09V2.0918H328.241V9.44168H335V16.4159H328.241V28.7014C328.241 30.5794 329.046 31.4909 330.869 31.4909C332.275 31.4978 333.66 31.1473 334.893 30.4723V37.0148C332.947 38.1644 330.716 38.7413 328.456 38.6792C323.466 38.6806 320.09 36.6951 320.09 30.0426Z" fill="black"/>
</svg>
